<svg width="300" height="300" viewBox="0 0 300 300" fill="none" xmlns="http://www.w3.org/2000/svg">
<path d="M121.875 164.062V192.188C121.875 203.376 117.43 214.107 109.519 222.019C101.607 229.93 90.8763 234.375 79.6875 234.375C68.4987 234.375 57.7681 229.93 49.8564 222.019C41.9447 214.107 37.5 203.376 37.5 192.188V164.062" stroke="white" stroke-width="15" stroke-linecap="round" stroke-linejoin="round"/>
<path d="M262.5 164.062V192.188C262.5 203.376 258.055 214.107 250.144 222.019C242.232 229.93 231.501 234.375 220.312 234.375C209.124 234.375 198.393 229.93 190.481 222.019C182.57 214.107 178.125 203.376 178.125 192.188V164.062" stroke="white" stroke-width="15" stroke-linecap="round" stroke-linejoin="round"/>
<path d="M234.375 56.25C238.073 56.2345 241.737 56.9514 245.156 58.3593C248.576 59.7672 251.682 61.8383 254.297 64.4531C256.912 67.0678 258.983 70.1744 260.391 73.5937C261.799 77.013 262.515 80.6772 262.5 84.375V164.062H37.5V84.375C37.4845 80.6772 38.2014 77.013 39.6093 73.5937C41.0172 70.1744 43.0883 67.0678 45.7031 64.4531C48.3178 61.8383 51.4244 59.7672 54.8437 58.3593C58.263 56.9514 61.9272 56.2345 65.625 56.25" stroke="white" stroke-width="15" stroke-linecap="round" stroke-linejoin="round"/>
<path d="M196.875 164.062L252.422 219.609" stroke="white" stroke-width="15" stroke-linecap="round" stroke-linejoin="round"/>
<path d="M56.25 164.062L111.797 219.609" stroke="white" stroke-width="15" stroke-linecap="round" stroke-linejoin="round"/>
</svg>
